<svg width="358" height="96" viewBox="0 0 358 96" fill="none" xmlns="http://www.w3.org/2000/svg">
<rect width="358" height="96" fill="#EDEDED"/>
<path d="M45.714 49.228C45.714 50.068 45.4293 50.74 44.86 51.244C44.3 51.748 43.4927 52 42.438 52H39.12V42.2H41.766C42.3727 42.2 42.9047 42.2793 43.362 42.438C43.8193 42.5967 44.1507 42.8113 44.356 43.082C44.748 43.5487 44.944 44.0667 44.944 44.636C44.944 45.7093 44.398 46.4047 43.306 46.722C44.034 46.8247 44.6173 47.1047 45.056 47.562C45.4947 48.01 45.714 48.5653 45.714 49.228ZM43.488 44.776C43.488 44.1973 43.334 43.7773 43.026 43.516C42.718 43.2547 42.2 43.124 41.472 43.124H40.632V46.442H41.724C42.284 46.442 42.718 46.2927 43.026 45.994C43.334 45.6953 43.488 45.2893 43.488 44.776ZM44.174 49.144C44.174 48.5653 43.964 48.1173 43.544 47.8C43.1333 47.4827 42.564 47.324 41.836 47.324H40.632V51.076H41.962C42.7273 51.076 43.2873 50.9267 43.642 50.628C43.9967 50.3293 44.174 49.8347 44.174 49.144ZM52.3648 51.076V52H47.2548V42.2H48.7948V51.076H52.3648ZM62.3904 52H60.8224L59.7024 49.494H55.4324L54.3124 52H53.2064L57.7844 41.78L62.3904 52ZM59.2544 48.5L57.5604 44.636L55.8664 48.5H59.2544ZM71.0141 43.32L70.5521 43.908C69.7867 43.2453 68.8487 42.914 67.7381 42.914C66.6274 42.914 65.7221 43.3013 65.0221 44.076C64.3314 44.8507 63.9861 45.868 63.9861 47.128C63.9861 48.36 64.3314 49.3633 65.0221 50.138C65.7221 50.9033 66.6274 51.286 67.7381 51.286C68.9514 51.286 69.9547 50.9313 70.7481 50.222L71.2101 50.782C70.7061 51.23 70.1741 51.5847 69.6141 51.846C69.0541 52.0887 68.3774 52.21 67.5841 52.21C66.0721 52.21 64.8261 51.734 63.8461 50.782C62.8754 49.83 62.3901 48.6167 62.3901 47.142C62.3901 45.6767 62.8847 44.454 63.8741 43.474C64.8634 42.4847 66.1001 41.99 67.5841 41.99C68.1441 41.99 68.6481 42.0647 69.0961 42.214C69.5814 42.3727 69.9407 42.5313 70.1741 42.69C70.4261 42.8487 70.7061 43.0587 71.0141 43.32ZM75.7735 46.568L80.6035 52H78.7135L74.4295 47.184V52H72.8895V42.2H74.4295V46.54L78.6855 42.2H80.0295L75.7735 46.568Z" fill="#757575"/>
<path d="M15.8232 47.8232C15.7256 47.9209 15.7256 48.0791 15.8232 48.1768L17.4142 49.7678C17.5118 49.8654 17.6701 49.8654 17.7678 49.7678C17.8654 49.6701 17.8654 49.5118 17.7678 49.4142L16.3536 48L17.7678 46.5858C17.8654 46.4882 17.8654 46.3299 17.7678 46.2322C17.6701 46.1346 17.5118 46.1346 17.4142 46.2322L15.8232 47.8232ZM32 47.75H16V48.25H32V47.75Z" fill="#757575"/>
<path d="M287 46.862H290.78C290.696 48.5047 290.215 49.8067 289.338 50.768C288.47 51.7293 287.275 52.21 285.754 52.21C284.214 52.21 282.963 51.7293 282.002 50.768C281.041 49.8067 280.56 48.5933 280.56 47.128C280.56 45.672 281.055 44.454 282.044 43.474C283.033 42.4847 284.275 41.99 285.768 41.99C286.524 41.99 287.173 42.1113 287.714 42.354C288.255 42.5873 288.787 42.9467 289.31 43.432L288.834 44.006C288.05 43.278 287.075 42.914 285.908 42.914C284.825 42.914 283.929 43.292 283.22 44.048C282.511 44.7947 282.156 45.826 282.156 47.142C282.156 48.3647 282.501 49.3633 283.192 50.138C283.873 50.9033 284.769 51.286 285.88 51.286C287.009 51.286 287.882 50.95 288.498 50.278C289.114 49.5873 289.45 48.752 289.506 47.772H287V46.862ZM297.102 41.99C298.623 41.99 299.869 42.4753 300.84 43.446C301.82 44.4167 302.31 45.644 302.31 47.128C302.31 48.612 301.815 49.8347 300.826 50.796C299.837 51.748 298.595 52.224 297.102 52.224C295.609 52.224 294.363 51.748 293.364 50.796C292.384 49.844 291.894 48.626 291.894 47.142C291.894 45.658 292.393 44.4307 293.392 43.46C294.4 42.48 295.637 41.99 297.102 41.99ZM293.49 47.156C293.49 48.3507 293.826 49.34 294.498 50.124C295.17 50.8987 296.038 51.286 297.102 51.286C298.185 51.286 299.053 50.894 299.706 50.11C300.378 49.3167 300.714 48.3133 300.714 47.1C300.714 45.868 300.378 44.8647 299.706 44.09C299.053 43.306 298.185 42.914 297.102 42.914C296.075 42.914 295.217 43.2873 294.526 44.034C293.835 44.7807 293.49 45.8213 293.49 47.156ZM309.103 51.076V52H303.993V42.2H305.533V51.076H309.103ZM318.453 47.058C318.453 48.542 317.963 49.7367 316.983 50.642C316.022 51.5473 314.706 52 313.035 52H310.501V42.2H313.091C314.734 42.2 316.036 42.6527 316.997 43.558C317.968 44.4727 318.453 45.6393 318.453 47.058ZM316.857 47.03C316.857 46.0313 316.572 45.1493 316.003 44.384C315.714 43.992 315.312 43.684 314.799 43.46C314.295 43.236 313.721 43.124 313.077 43.124H312.041V51.076H313.035C314.23 51.076 315.163 50.712 315.835 49.984C316.516 49.2653 316.857 48.2807 316.857 47.03Z" fill="#757575"/>
<path d="M342.177 48.1768C342.274 48.0791 342.274 47.9209 342.177 47.8232L340.586 46.2322C340.488 46.1346 340.33 46.1346 340.232 46.2322C340.135 46.3299 340.135 46.4882 340.232 46.5858L341.646 48L340.232 49.4142C340.135 49.5118 340.135 49.6701 340.232 49.7678C340.33 49.8654 340.488 49.8654 340.586 49.7678L342.177 48.1768ZM326 47.75H325.75V48.25H326V47.75ZM342 47.75H326V48.25H342V47.75Z" fill="#757575"/>
<path d="M138.623 42.004C139.463 42.004 140.172 42.2467 140.751 42.732C141.899 43.6653 142.473 45.1447 142.473 47.17C142.473 48.6167 142.118 49.8207 141.409 50.782C140.709 51.734 139.775 52.21 138.609 52.21C137.442 52.21 136.504 51.734 135.795 50.782C135.085 49.8393 134.731 48.6307 134.731 47.156C134.731 46.26 134.866 45.4293 135.137 44.664C135.417 43.8987 135.855 43.264 136.453 42.76C137.05 42.256 137.773 42.004 138.623 42.004ZM138.623 51.286C139.407 51.286 139.985 50.894 140.359 50.11C140.741 49.298 140.933 48.2947 140.933 47.1C140.933 45.8773 140.741 44.874 140.359 44.09C139.976 43.3153 139.402 42.928 138.637 42.928C137.825 42.928 137.223 43.32 136.831 44.104C136.448 44.888 136.257 45.896 136.257 47.128C136.257 48.3507 136.448 49.354 136.831 50.138C137.223 50.9033 137.82 51.286 138.623 51.286ZM161.069 47.464V48.612H147.083V47.464H161.069ZM172.545 51.076V52H165.251L169.283 47.744C170.142 46.8293 170.571 45.8633 170.571 44.846C170.571 44.3233 170.371 43.88 169.969 43.516C169.577 43.152 169.12 42.97 168.597 42.97C168.093 42.97 167.645 43.1147 167.253 43.404C166.871 43.6933 166.595 44.0807 166.427 44.566L165.713 44.328C165.891 43.628 166.259 43.068 166.819 42.648C167.389 42.2187 168.07 42.004 168.863 42.004C169.834 42.004 170.618 42.2747 171.215 42.816C171.813 43.348 172.111 44.0293 172.111 44.86C172.111 45.42 171.995 45.9427 171.761 46.428C171.528 46.904 171.127 47.4453 170.557 48.052L167.743 51.076H172.545ZM180.554 48.738C180.554 49.6993 180.227 50.5207 179.574 51.202C178.93 51.8833 178.062 52.224 176.97 52.224C175.672 52.224 174.618 51.7013 173.806 50.656L174.282 50.194C174.907 50.922 175.719 51.286 176.718 51.286C177.399 51.286 177.95 51.0573 178.37 50.6C178.799 50.1427 179.014 49.522 179.014 48.738C179.014 48.0007 178.799 47.4127 178.37 46.974C177.94 46.5167 177.38 46.288 176.69 46.288C175.98 46.288 175.439 46.5587 175.066 47.1C174.86 47.0533 174.683 47.03 174.534 47.03L175.22 42.2H180.176V43.124H176.06L175.668 45.826C176.041 45.5553 176.531 45.42 177.138 45.42C178.155 45.42 178.976 45.7467 179.602 46.4C180.236 47.0627 180.554 47.842 180.554 48.738ZM189.673 42.004C190.513 42.004 191.223 42.2467 191.801 42.732C192.949 43.6653 193.523 45.1447 193.523 47.17C193.523 48.6167 193.169 49.8207 192.459 50.782C191.759 51.734 190.826 52.21 189.659 52.21C188.493 52.21 187.555 51.734 186.845 50.782C186.136 49.8393 185.781 48.6307 185.781 47.156C185.781 46.26 185.917 45.4293 186.187 44.664C186.467 43.8987 186.906 43.264 187.503 42.76C188.101 42.256 188.824 42.004 189.673 42.004ZM189.673 51.286C190.457 51.286 191.036 50.894 191.409 50.11C191.792 49.298 191.983 48.2947 191.983 47.1C191.983 45.8773 191.792 44.874 191.409 44.09C191.027 43.3153 190.453 42.928 189.687 42.928C188.875 42.928 188.273 43.32 187.881 44.104C187.499 44.888 187.307 45.896 187.307 47.128C187.307 48.3507 187.499 49.354 187.881 50.138C188.273 50.9033 188.871 51.286 189.673 51.286ZM198.601 42.004C199.441 42.004 200.15 42.2467 200.729 42.732C201.877 43.6653 202.451 45.1447 202.451 47.17C202.451 48.6167 202.096 49.8207 201.387 50.782C200.687 51.734 199.754 52.21 198.587 52.21C197.42 52.21 196.482 51.734 195.773 50.782C195.064 49.8393 194.709 48.6307 194.709 47.156C194.709 46.26 194.844 45.4293 195.115 44.664C195.395 43.8987 195.834 43.264 196.431 42.76C197.028 42.256 197.752 42.004 198.601 42.004ZM198.601 51.286C199.385 51.286 199.964 50.894 200.337 50.11C200.72 49.298 200.911 48.2947 200.911 47.1C200.911 45.8773 200.72 44.874 200.337 44.09C199.954 43.3153 199.38 42.928 198.615 42.928C197.803 42.928 197.201 43.32 196.809 44.104C196.426 44.888 196.235 45.896 196.235 47.128C196.235 48.3507 196.426 49.354 196.809 50.138C197.201 50.9033 197.798 51.286 198.601 51.286ZM207.529 42.004C208.369 42.004 209.078 42.2467 209.657 42.732C210.805 43.6653 211.379 45.1447 211.379 47.17C211.379 48.6167 211.024 49.8207 210.315 50.782C209.615 51.734 208.681 52.21 207.515 52.21C206.348 52.21 205.41 51.734 204.701 50.782C203.991 49.8393 203.637 48.6307 203.637 47.156C203.637 46.26 203.772 45.4293 204.043 44.664C204.323 43.8987 204.761 43.264 205.359 42.76C205.956 42.256 206.679 42.004 207.529 42.004ZM207.529 51.286C208.313 51.286 208.891 50.894 209.265 50.11C209.647 49.298 209.839 48.2947 209.839 47.1C209.839 45.8773 209.647 44.874 209.265 44.09C208.882 43.3153 208.308 42.928 207.543 42.928C206.731 42.928 206.129 43.32 205.737 44.104C205.354 44.888 205.163 45.896 205.163 47.128C205.163 48.3507 205.354 49.354 205.737 50.138C206.129 50.9033 206.726 51.286 207.529 51.286ZM217.067 52V42.004H219.699C220.922 42.004 221.827 42.2513 222.415 42.746C223.012 43.2407 223.311 43.9593 223.311 44.902C223.311 45.5367 223.166 46.0827 222.877 46.54C222.588 46.988 222.158 47.3333 221.589 47.576C221.029 47.8187 220.334 47.94 219.503 47.94H218.327V52H217.067ZM215.849 50.096V49.186H220.637V50.096H215.849ZM215.849 47.94V46.876H219.055V47.94H215.849ZM219.321 46.876C219.89 46.876 220.371 46.8153 220.763 46.694C221.164 46.5727 221.472 46.372 221.687 46.092C221.902 45.812 222.009 45.4293 222.009 44.944C222.009 44.3093 221.813 43.838 221.421 43.53C221.029 43.222 220.418 43.068 219.587 43.068H218.327V46.876H219.321Z" fill="#151515"/>
<path d="M138.623 42.004C139.463 42.004 140.172 42.2467 140.751 42.732C141.899 43.6653 142.473 45.1447 142.473 47.17C142.473 48.6167 142.118 49.8207 141.409 50.782C140.709 51.734 139.775 52.21 138.609 52.21C137.442 52.21 136.504 51.734 135.795 50.782C135.085 49.8393 134.731 48.6307 134.731 47.156C134.731 46.26 134.866 45.4293 135.137 44.664C135.417 43.8987 135.855 43.264 136.453 42.76C137.05 42.256 137.773 42.004 138.623 42.004ZM138.623 51.286C139.407 51.286 139.985 50.894 140.359 50.11C140.741 49.298 140.933 48.2947 140.933 47.1C140.933 45.8773 140.741 44.874 140.359 44.09C139.976 43.3153 139.402 42.928 138.637 42.928C137.825 42.928 137.223 43.32 136.831 44.104C136.448 44.888 136.257 45.896 136.257 47.128C136.257 48.3507 136.448 49.354 136.831 50.138C137.223 50.9033 137.82 51.286 138.623 51.286ZM161.069 47.464V48.612H147.083V47.464H161.069ZM172.545 51.076V52H165.251L169.283 47.744C170.142 46.8293 170.571 45.8633 170.571 44.846C170.571 44.3233 170.371 43.88 169.969 43.516C169.577 43.152 169.12 42.97 168.597 42.97C168.093 42.97 167.645 43.1147 167.253 43.404C166.871 43.6933 166.595 44.0807 166.427 44.566L165.713 44.328C165.891 43.628 166.259 43.068 166.819 42.648C167.389 42.2187 168.07 42.004 168.863 42.004C169.834 42.004 170.618 42.2747 171.215 42.816C171.813 43.348 172.111 44.0293 172.111 44.86C172.111 45.42 171.995 45.9427 171.761 46.428C171.528 46.904 171.127 47.4453 170.557 48.052L167.743 51.076H172.545ZM180.554 48.738C180.554 49.6993 180.227 50.5207 179.574 51.202C178.93 51.8833 178.062 52.224 176.97 52.224C175.672 52.224 174.618 51.7013 173.806 50.656L174.282 50.194C174.907 50.922 175.719 51.286 176.718 51.286C177.399 51.286 177.95 51.0573 178.37 50.6C178.799 50.1427 179.014 49.522 179.014 48.738C179.014 48.0007 178.799 47.4127 178.37 46.974C177.94 46.5167 177.38 46.288 176.69 46.288C175.98 46.288 175.439 46.5587 175.066 47.1C174.86 47.0533 174.683 47.03 174.534 47.03L175.22 42.2H180.176V43.124H176.06L175.668 45.826C176.041 45.5553 176.531 45.42 177.138 45.42C178.155 45.42 178.976 45.7467 179.602 46.4C180.236 47.0627 180.554 47.842 180.554 48.738ZM189.673 42.004C190.513 42.004 191.223 42.2467 191.801 42.732C192.949 43.6653 193.523 45.1447 193.523 47.17C193.523 48.6167 193.169 49.8207 192.459 50.782C191.759 51.734 190.826 52.21 189.659 52.21C188.493 52.21 187.555 51.734 186.845 50.782C186.136 49.8393 185.781 48.6307 185.781 47.156C185.781 46.26 185.917 45.4293 186.187 44.664C186.467 43.8987 186.906 43.264 187.503 42.76C188.101 42.256 188.824 42.004 189.673 42.004ZM189.673 51.286C190.457 51.286 191.036 50.894 191.409 50.11C191.792 49.298 191.983 48.2947 191.983 47.1C191.983 45.8773 191.792 44.874 191.409 44.09C191.027 43.3153 190.453 42.928 189.687 42.928C188.875 42.928 188.273 43.32 187.881 44.104C187.499 44.888 187.307 45.896 187.307 47.128C187.307 48.3507 187.499 49.354 187.881 50.138C188.273 50.9033 188.871 51.286 189.673 51.286ZM198.601 42.004C199.441 42.004 200.15 42.2467 200.729 42.732C201.877 43.6653 202.451 45.1447 202.451 47.17C202.451 48.6167 202.096 49.8207 201.387 50.782C200.687 51.734 199.754 52.21 198.587 52.21C197.42 52.21 196.482 51.734 195.773 50.782C195.064 49.8393 194.709 48.6307 194.709 47.156C194.709 46.26 194.844 45.4293 195.115 44.664C195.395 43.8987 195.834 43.264 196.431 42.76C197.028 42.256 197.752 42.004 198.601 42.004ZM198.601 51.286C199.385 51.286 199.964 50.894 200.337 50.11C200.72 49.298 200.911 48.2947 200.911 47.1C200.911 45.8773 200.72 44.874 200.337 44.09C199.954 43.3153 199.38 42.928 198.615 42.928C197.803 42.928 197.201 43.32 196.809 44.104C196.426 44.888 196.235 45.896 196.235 47.128C196.235 48.3507 196.426 49.354 196.809 50.138C197.201 50.9033 197.798 51.286 198.601 51.286ZM207.529 42.004C208.369 42.004 209.078 42.2467 209.657 42.732C210.805 43.6653 211.379 45.1447 211.379 47.17C211.379 48.6167 211.024 49.8207 210.315 50.782C209.615 51.734 208.681 52.21 207.515 52.21C206.348 52.21 205.41 51.734 204.701 50.782C203.991 49.8393 203.637 48.6307 203.637 47.156C203.637 46.26 203.772 45.4293 204.043 44.664C204.323 43.8987 204.761 43.264 205.359 42.76C205.956 42.256 206.679 42.004 207.529 42.004ZM207.529 51.286C208.313 51.286 208.891 50.894 209.265 50.11C209.647 49.298 209.839 48.2947 209.839 47.1C209.839 45.8773 209.647 44.874 209.265 44.09C208.882 43.3153 208.308 42.928 207.543 42.928C206.731 42.928 206.129 43.32 205.737 44.104C205.354 44.888 205.163 45.896 205.163 47.128C205.163 48.3507 205.354 49.354 205.737 50.138C206.129 50.9033 206.726 51.286 207.529 51.286ZM217.067 52V42.004H219.699C220.922 42.004 221.827 42.2513 222.415 42.746C223.012 43.2407 223.311 43.9593 223.311 44.902C223.311 45.5367 223.166 46.0827 222.877 46.54C222.588 46.988 222.158 47.3333 221.589 47.576C221.029 47.8187 220.334 47.94 219.503 47.94H218.327V52H217.067ZM215.849 50.096V49.186H220.637V50.096H215.849ZM215.849 47.94V46.876H219.055V47.94H215.849ZM219.321 46.876C219.89 46.876 220.371 46.8153 220.763 46.694C221.164 46.5727 221.472 46.372 221.687 46.092C221.902 45.812 222.009 45.4293 222.009 44.944C222.009 44.3093 221.813 43.838 221.421 43.53C221.029 43.222 220.418 43.068 219.587 43.068H218.327V46.876H219.321Z" fill="black" fill-opacity="0.2"/>
</svg>
