<svg width="390" height="220" viewBox="0 0 390 220" fill="none" xmlns="http://www.w3.org/2000/svg">
<g clip-path="url(#clip0_1602_177750)">
<rect width="390" height="220" fill="#151515"/>
<g clip-path="url(#clip1_1602_177750)">
<path d="M71.911 42.5412C70.9773 41.7383 69.7635 41.3815 68.5496 41.3815C67.5225 41.3815 66.6821 41.6491 65.8418 41.9167V36.1182H63.4141V51.1052H65.8418C66.402 51.1944 67.0556 51.1944 67.896 51.1944C68.8297 51.1944 70.4171 51.1052 71.8177 50.2131C73.1249 49.321 73.8719 48.0721 73.8719 46.3772C73.6851 44.5038 72.9382 43.2549 71.911 42.5412ZM67.8026 50.2131C66.7755 50.2131 66.2153 50.1239 65.9351 49.9455C65.9351 49.9455 65.9351 49.9455 65.8418 49.9455V42.6304C66.402 42.3628 67.0556 42.2736 67.896 42.2736C70.3237 42.2736 71.5376 44.3254 71.5376 46.1987C71.5376 49.4995 69.4833 50.2131 67.8026 50.2131Z" fill="#757575"/>
<path d="M34.1894 47.7153V36.1182H31.7617V51.1945H32.4153L42.8732 39.3297V50.9268H45.3942V35.8506H44.7406L34.1894 47.7153Z" fill="#757575"/>
<path d="M54.7316 35.8506H54.2647L47.2617 50.9268H48.5689L53.9846 39.3297L58.9334 50.9268H61.7346L54.7316 35.8506Z" fill="#757575"/>
<path d="M167.805 34.334C170.046 34.334 172.193 33.5311 173.687 32.193L172.1 30.498C170.886 32.2822 169.112 33.3527 166.964 33.3527C166.404 33.3527 165.751 33.2635 165.19 33.0851L164.91 33.9772C166.031 34.1556 166.964 34.334 167.805 34.334Z" fill="#757575"/>
<path d="M106.18 35.7612C101.512 35.7612 97.5898 39.2404 97.5898 43.5224C97.5898 48.2504 101.045 51.2835 106.554 51.2835C109.355 51.2835 111.876 50.3022 113.743 48.4289L114.024 46.6447H113.463C111.969 48.9641 109.168 50.3914 106.367 50.3914C102.632 50.3914 99.9242 47.5368 99.9242 43.6116H114.397C114.677 39.1512 110.849 35.7612 106.18 35.7612ZM100.298 42.5411C100.671 38.9727 102.819 36.6533 106.18 36.6533C109.262 36.6533 112.063 39.2404 112.436 42.5411H100.298Z" fill="#757575"/>
<path d="M168.742 35.7612C166.688 35.7612 165.007 36.1181 163.513 36.9209L164.353 37.813C165.661 37.0102 167.341 36.5641 168.742 36.5641C171.917 36.5641 174.344 38.9727 174.811 42.4519H164.54V43.4332H174.811C174.811 47.2691 172.29 50.1238 168.742 50.1238C167.248 50.1238 165.007 49.4994 163.42 48.072H162.859L163.42 49.5886C165.007 50.5699 166.781 51.1051 168.742 51.1051C171.263 51.1051 173.411 50.3022 174.998 48.9641C176.492 47.5368 177.426 45.485 177.426 43.344C177.146 39.062 173.597 35.7612 168.742 35.7612Z" fill="#757575"/>
<path d="M150.625 37.0995H155.2V50.9268H157.628V37.0995H162.203V36.1182H150.625V37.0995Z" fill="#757575"/>
<path d="M95.9094 44.0576V40.2216C95.9094 39.0619 95.6293 37.5453 95.2558 36.6533C94.0419 33.977 91.3341 32.4604 87.5992 32.4604C85.3582 32.4604 83.5841 33.0849 81.9968 34.5122L81.7166 36.0288H82.3702C84.1443 34.0662 85.5449 33.3525 87.8793 33.3525C91.5208 33.3525 93.4817 35.4935 93.7618 39.5971C92.2678 38.0806 90.4004 37.1885 88.2528 37.1885C83.6775 37.1885 80.2227 40.2216 80.2227 44.236C80.2227 48.072 83.6775 51.2835 87.9727 51.2835C89.7468 51.2835 91.9877 51.0158 94.1353 48.6964C94.9757 47.8935 95.9094 46.377 95.9094 44.0576ZM93.7618 44.1468C93.7618 45.931 93.1082 47.7151 91.8943 48.8748C90.9606 49.8561 89.6534 50.3914 88.1594 50.3914C84.9847 50.3914 82.6504 47.8043 82.557 44.1468C82.557 42.1842 83.1172 40.5784 84.3311 39.5079C85.2648 38.5266 86.7588 37.9914 88.2528 37.9914C90.9606 37.9914 93.5751 39.954 93.7618 44.1468Z" fill="#757575"/>
<path d="M142.594 35.8506C137.926 35.8506 134.004 39.3297 134.004 43.6117C134.004 47.8938 137.926 51.3729 142.594 51.3729C147.263 51.3729 151.185 47.8938 151.185 43.6117C151.185 39.3297 147.356 35.8506 142.594 35.8506ZM147.45 48.429C146.516 49.5887 145.209 50.2132 143.528 50.3916C143.248 50.3916 143.155 50.3916 142.874 50.3916C139.513 50.3916 137.085 47.8045 136.712 44.147C136.432 42.0952 136.992 40.2218 138.206 38.7945C139.139 37.6348 140.447 36.8319 142.127 36.7427C142.221 36.7427 142.501 36.7427 142.688 36.7427C145.862 36.7427 148.57 39.4189 148.944 42.9873C149.037 45.0391 148.477 47.0017 147.45 48.429Z" fill="#757575"/>
<path d="M131.017 42.5412C130.083 41.7383 128.869 41.3815 127.655 41.3815C126.628 41.3815 125.788 41.6491 124.948 41.9167V37.1887C131.204 37.1887 131.764 37.1887 131.951 37.1887V36.1182H122.613V51.1052H125.041C125.601 51.1944 126.255 51.1944 127.095 51.1944C128.029 51.1944 129.616 51.1052 131.017 50.2131C132.324 49.321 133.071 48.0721 133.071 46.3772C132.698 44.5038 132.044 43.2549 131.017 42.5412ZM130.55 46.1987C130.55 48.1613 129.616 50.3023 126.908 50.3023C125.975 50.3023 125.321 50.2131 124.854 50.0347H124.761V42.7196C125.321 42.452 125.975 42.3628 126.815 42.3628C129.616 42.0951 130.55 44.5038 130.55 46.1987Z" fill="#757575"/>
</g>
<path opacity="0.1" d="M82.1439 88.4558C180.726 76.3251 270.649 27.7117 328.785 -42.0225L249.347 -111.516C206.063 -22.7492 134.087 36.1719 39.6123 47.7971C14.9668 50.8298 -14.2918 50.2581 -39.9488 45.0711L-47.2145 87.6855C3.08802 89.8397 45.1756 93.0049 82.1439 88.4558Z" fill="url(#paint0_linear_1602_177750)"/>
<path opacity="0.2" d="M234.884 -104.323L320.629 -25.3853C257.895 53.5908 160.66 108.302 53.7927 121.453C19.9711 125.614 -17.8376 123.499 -61.7029 121.045C-69.6534 120.6 -77.8028 120.144 -86.1636 119.712L-78.7957 72.5846C-50.9094 78.5673 -19.2893 79.3798 7.36371 76.1001C110.191 63.447 188.216 -3.34454 234.884 -104.323Z" stroke="#A1A1A1" stroke-width="1.5"/>
<path opacity="0.5" d="M207.594 206.454C207.594 210.37 206.304 213.618 203.723 216.199C201.189 218.733 197.503 220 192.665 220H177.529V171.62H189.002C194.623 171.62 198.563 173.072 200.821 175.974C202.71 178.37 203.654 180.928 203.654 183.646C203.654 186.18 202.963 188.346 201.581 190.143C200.245 191.94 198.24 193.23 195.568 194.013C199.208 194.52 202.111 195.902 204.276 198.16C206.488 200.418 207.594 203.182 207.594 206.454ZM198.263 184.061C198.263 180.881 197.434 178.578 195.775 177.149C194.163 175.721 191.421 175.007 187.551 175.007H183.127V192.907H188.864C191.859 192.907 194.163 192.124 195.775 190.557C197.434 188.991 198.263 186.825 198.263 184.061ZM201.926 206.177C201.926 202.998 200.821 200.556 198.609 198.851C196.397 197.1 193.356 196.225 189.486 196.225H183.127V216.613H190.315C194.416 216.613 197.365 215.807 199.162 214.194C201.005 212.582 201.926 209.909 201.926 206.177ZM239.011 216.613V220H216.203V171.62H221.802V216.613H239.011ZM243.155 220L264.65 170.031L285.937 220H280.131L274.118 205.693H253.246L247.233 220H243.155ZM272.598 202.238L263.751 180.605L254.766 202.238H272.598ZM326.774 211.983L328.502 214.056C323.341 218.618 317.536 220.898 311.085 220.898C303.805 220.898 297.792 218.549 293.046 213.849C288.3 209.103 285.927 203.136 285.927 195.948C285.927 188.807 288.369 182.817 293.254 177.979C298.138 173.141 304.081 170.722 311.085 170.722C314.495 170.722 317.443 171.252 319.932 172.311C322.466 173.325 324.977 174.869 327.465 176.942L325.806 179.084C321.798 175.767 317.052 174.108 311.569 174.108C305.809 174.108 301.063 176.159 297.331 180.259C293.645 184.36 291.802 189.567 291.802 195.879C291.802 202.192 293.645 207.398 297.331 211.499C301.063 215.554 305.786 217.581 311.5 217.581C317.397 217.581 322.489 215.715 326.774 211.983ZM347.321 193.322L371.994 220H364.945L343.796 196.363L342.414 197.745V220H336.815V171.62H342.414V193.046L364.254 171.62H369.23L347.321 193.322Z" fill="url(#paint1_linear_1602_177750)"/>
</g>
<defs>
<linearGradient id="paint0_linear_1602_177750" x1="-56.0646" y1="15.764" x2="330.049" y2="-31.7479" gradientUnits="userSpaceOnUse">
<stop stop-color="#80807F"/>
<stop offset="1" stop-color="#D9DADA"/>
</linearGradient>
<linearGradient id="paint1_linear_1602_177750" x1="172" y1="196" x2="373" y2="196" gradientUnits="userSpaceOnUse">
<stop stop-color="#80807F"/>
<stop offset="1" stop-color="#D9DADA"/>
</linearGradient>
<clipPath id="clip0_1602_177750">
<rect width="390" height="220" fill="white"/>
</clipPath>
<clipPath id="clip1_1602_177750">
<rect width="155" height="26.7626" fill="white" transform="translate(27 28)"/>
</clipPath>
</defs>
</svg>
